# AST/ASF file generated using VICON BodyLanguage
# -----------------------------------------------
:version 1.10
:name VICON
:units
  mass 1.0
  length 0.45
  angle deg
:documentation
   .ast/.asf automatically generated from VICON data using
   VICON BodyBuilder and BodyLanguage model FoxedUp or BRILLIANT.MOD
:root
   order TX TY TZ RX RY RZ
   axis XYZ
   position 0 0 0  
   orientation 0 0 0 
:bonedata
  begin
     id 1 
     name lhipjoint
     direction 0.558404 -0.748506 0.357664 
     length 2.4234 
     axis 0 0 0  XYZ
  end
  begin
     id 2 
     name lfemur
     direction 0.34202 -0.939693 0  
     length 7.14567  
     axis 0 0 20  XYZ
    dof rx ry rz
    limits (-160.0 20.0)
           (-70.0 70.0)
           (-60.0 70.0)
  end
  begin
     id 3 
     name ltibia
     direction 0.34202 -0.939693 0   
     length 8.13956   
     axis 0 0 20   XYZ
    dof rx
    limits (-10.0 170.0)
  end
  begin
     id 4 
     name lfoot
     direction 0.0791314 -0.217412 0.972867   
     length 2.00134   
     axis -90 7.62852e-016 20   XYZ
    dof rx rz
    limits (-45.0 90.0)
           (-70.0 20.0)
  end
  begin
     id 5 
     name ltoes
     direction 1.53547e-011 -4.21922e-011 1   
     length 1.00735   
     axis -90 7.62852e-016 20   XYZ
    dof rx
    limits (-90.0 20.0)
  end
  begin
     id 6 
     name rhipjoint
     direction -0.496392 -0.78327 0.374276   
     length 2.31584  
     axis 0 0 0  XYZ 
  end
  begin
     id 7 
     name rfemur
     direction -0.34202 -0.939693 0   
     length 7.47417   
     axis 0 0 -20   XYZ
    dof rx ry rz
    limits (-160.0 20.0)
           (-70.0 70.0)
           (-70.0 60.0)
  end
  begin
     id 8 
     name rtibia
     direction -0.34202 -0.939693 0   
     length 7.69071   
     axis 0 0 -20   XYZ
    dof rx
    limits (-10.0 170.0)
 end
 begin
     id 9 
     name rfoot
     direction -0.103069 -0.28318 0.953512   
     length 2.16135  
     axis -90 -7.62852e-016 -20   XYZ
    dof rx rz
    limits (-45.0 90.0)
           (-20.0 70.0)
  end
  begin
     id 10 
     name rtoes
     direction -1.53581e-011 -4.21904e-011 1   
     length 1.07867   
     axis -90 -7.62852e-016 -20   XYZ
    dof rx
    limits (-90.0 20.0)
  end
  begin
     id 11 
     name lowerback
     direction -0.0258961 0.994776 -0.0987407   
     length 2.19412   
     axis 0 0 0   XYZ
    dof rx ry rz
    limits (-20.0 45.0)
           (-30.0 30.0)
           (-30.0 30.0)
  end
  begin
     id 12 
     name upperback
     direction 0.0402454 0.999185 0.00320666   
     length 2.18445   
     axis 0 0 0   XYZ
    dof rx ry rz
    limits (-20.0 45.0)
           (-30.0 30.0)
           (-30.0 30.0)
  end
  begin
     id 13 
     name thorax
     direction 0.0519376 0.997415 0.0496558   
     length 2.21487   
     axis 0 0 0   XYZ
    dof rx ry rz
    limits (-20.0 45.0)
           (-30.0 30.0)
           (-30.0 30.0)
  end
  begin
     id 14 
     name lowerneck
     direction -0.0921276 0.983211 0.157506   
     length 1.61201   
     axis 0 0 0   XYZ
    dof rx ry rz
    limits (-20.0 45.0)
           (-30.0 30.0)
           (-30.0 30.0)
  end
  begin
     id 15 
     name upperneck
     direction 0.0820814 0.98162 -0.172292   
     length 1.65275   
     axis 0 0 0   XYZ
    dof rx ry rz
    limits (-20.0 45.0)
           (-30.0 30.0)
           (-30.0 30.0)
  end
  begin
     id 16
     name head
     direction 0.0336554 0.996413 -0.0776455  
     length 1.66415  
     axis 0 0 0   XYZ
    dof rx ry rz
    limits (-20.0 45.0)
           (-30.0 30.0)
           (-30.0 30.0)
  end
  begin
     id 17 
     name lclavicle
     direction 0.94696 0.284418 -0.149576  
     length 3.41447  
     axis 0 0 0   XYZ
    dof ry rz
    limits (-20.0 10.0)
           (0.0 20.0)
  end
  begin
     id 18 
     name lhumerus
     direction 1 -0.000130264 -9.81312e-005   
     length 5.19964   
     axis 180 -30 -90   XYZ
    dof rx ry rz
    limits (-60.0 90.0)
           (-90.0 90.0)
           (-90.0 90.0)
  end
  begin
     id 19
     name lradius
     direction 1 -4.48961e-011 1.43854e-026   
     length 3.32189   
     axis 180 -30 -90   XYZ
    dof rx
    limits (-10.0 170.0)
  end
  begin
     id 20
     name lwrist
     direction 1 -4.48958e-011 3.1502e-026   
     length 1.66095   
     axis -1.97692e-014 90 90   XYZ
    dof ry
    limits (-180.0 0.0)
 end
  begin
     id 21 
     name lhand
     direction 1 -4.48927e-011 6.3004e-026   
     length 0.645616   
     axis -4.02019e-014 90 90   XYZ
    dof rx rz
    limits (-90.0 90.0)
           (-45.0 45.0)
  end
  begin
     id 22 
     name lfingers
     direction 1 -4.4904e-011 1.26008e-025   
     length 0.520512   
     axis -8.04039e-014 90 90   XYZ
    dof rx
    limits (0.0 90.0)
  end
  begin
     id 23
     name lthumb
     direction 0.707107 -6.34947e-011 0.707107   
     length 0.747354   
     axis -90 45 2.85299e-015   XYZ
    dof rx rz
    limits (-45.0 45.0)
           (-45.0 45.0)
  end
  begin
     id 24 
     name rclavicle
     direction -0.909391 0.383475 -0.161107   
     length 3.25176  
     axis 0 0 0   XYZ 
    dof ry rz
    limits (-10.0 20.0)
           (-20.0 0.0)
  end
  begin
     id 25 
     name rhumerus
     direction -1 -4.48965e-011 -1.81384e-027  
     length 5.6595   
     axis 180 30 90   XYZ
    dof rx ry rz
    limits (-90.0 60.0)
           (-90.0 90.0)
           (-90.0 90.0)
  end
  begin
     id 26 
     name rradius
     direction -1 -4.48996e-011 -8.09397e-027   
     length 3.37604   
     axis 180 30 90   XYZ
    dof rx
    limits (-10.0 170.0)
  end
  begin
     id 27 
     name rwrist
     direction -1 -4.48927e-011 -1.56669e-026   
     length 1.68802   
     axis 1.21142e-014 -90 -90   XYZ
    dof ry
    limits (-180.0 0.0)
  end
  begin
     id 28
     name rhand
     direction -1 -4.48912e-011 -3.13339e-026   
     length 0.824702   
     axis 1.99937e-014 -90 -90   XYZ
    dof rx rz
    limits (-90.0 90.0)
           (-45.0 45.0)
  end
  begin
     id 29
     name rfingers
     direction -1 -4.49011e-011 -6.26677e-026   
     length 0.664896   
     axis 3.99874e-014 -90 -90   XYZ
    dof rx
    limits (0.0 90.0)
  end
  begin
     id 30
     name rthumb
     direction -0.707107 -6.34931e-011 0.707107   
     length 0.954662   
     axis -90 -45 -2.85299e-015   XYZ
    dof rx rz
    limits (-45.0 45.0)
           (-45.0 45.0)
  end
:hierarchy
  begin
    root lhipjoint rhipjoint lowerback
    lhipjoint lfemur
    lfemur ltibia
    ltibia lfoot
    lfoot ltoes
    rhipjoint rfemur
    rfemur rtibia
    rtibia rfoot
    rfoot rtoes
    lowerback upperback
    upperback thorax
    thorax lowerneck lclavicle rclavicle
    lowerneck upperneck
    upperneck head
    lclavicle lhumerus
    lhumerus lradius
    lradius lwrist
    lwrist lhand lthumb
    lhand lfingers
    rclavicle rhumerus
    rhumerus rradius
    rradius rwrist
    rwrist rhand rthumb
    rhand rfingers
  end

#!OML:ASF F:\VICON\USERDATA\INSTALL\rory3\rory3.ASF
:FULLY-SPECIFIED
:DEGREES
136
root 3.14947 13.8023 -0.103729 -14.2524 -21.1702 -7.34556
lowerback 24.7224 -0.703367 0.123143
upperback 4.97239 -0.163625 9.0702
thorax -8.2198 -0.0498537 10.2615
lowerneck -2.3609 -7.28671 -16.237
upperneck 31.557 -10.7404 6.42925
head 12.0466 -6.18956 3.93974
rclavicle 4.41302e-014 -2.70347e-014
rhumerus -50.7101 -19.3335 -41.3131
rradius 54.556
rwrist -10.4933
rhand -20.6833 20.8403
rfingers 7.12502
rthumb 5.68015 -9.06357
lclavicle 4.41302e-014 -2.70347e-014
lhumerus -43.9372 30.2079 33.0824
lradius 48.4498
lwrist 13.3155
lhand -14.8875 39.7939
lfingers 7.12502
lthumb 11.2732 69.471
rfemur -32.0893 2.5116 -10.886
rtibia 77.2496
rfoot -0.851829 -35.2519
rtoes 53.8107
lfemur -45.8809 8.4808 -27.8366
ltibia 80.0032
lfoot -13.9356 1.909
ltoes 16.7063
137
root 3.16851 13.7456 0.0996037 -14.0166 -20.1687 -7.31335
lowerback 24.9922 -1.27736 0.374347
upperback 4.89683 -0.832815 9.04651
thorax -8.32922 -0.374653 10.3181
lowerneck -2.89338 -7.17663 -15.9564
upperneck 31.5147 -10.427 6.12411
head 12.0535 -6.0328 3.79926
rclavicle 3.24019e-014 -1.06549e-013
rhumerus -51.4522 -18.6175 -42.6983
rradius 54.2152
rwrist -9.35938
rhand -19.7792 21.3977
rfingers 7.12502
rthumb 6.55299 -8.48092
lclavicle 3.24019e-014 -1.06549e-013
lhumerus -42.8002 29.6477 37.5159
lradius 47.8953
lwrist 13.3489
lhand -13.8513 38.9752
lfingers 7.12502
lthumb 12.2724 68.5951
rfemur -35.0845 -0.264854 -7.94612
rtibia 72.0003
rfoot -3.54023 -35.1965
rtoes 52.32
lfemur -45.9612 8.03078 -28.6
ltibia 80.9203
lfoot -14.8351 1.50535
ltoes 20.2136
138
root 3.19345 13.7042 0.328743 -14.0287 -19.1239 -6.69839
lowerback 24.9088 -1.795 0.227753
upperback 4.89189 -1.57093 8.8339
thorax -8.16368 -0.735463 10.3785
lowerneck -3.07878 -7.01445 -15.7608
upperneck 31.2068 -10.1348 6.03736
head 11.904 -5.8758 3.7654
rclavicle -1.96797e-014 5.40694e-014
rhumerus -52.0195 -18.9308 -43.7313
rradius 53.4178
rwrist -7.63246
rhand -19.3056 22.0256
rfingers 7.12502
rthumb 7.01013 -7.83829
lclavicle -1.96797e-014 5.40694e-014
lhumerus -41.8332 29.3292 41.697
lradius 47.59
lwrist 11.9444
lhand -13.319 38.7162
lfingers 7.12502
lthumb 12.7857 68.3047
rfemur -37.7828 -2.86485 -5.53297
rtibia 66.4364
rfoot -2.04039 -34.6572
rtoes 52.093
lfemur -45.5813 7.70562 -30.0201
ltibia 81.5951
lfoot -16.0528 1.20389
ltoes 22.9909
139
root 3.20694 13.6565 0.570411 -13.8852 -18.4201 -6.14756
lowerback 24.5195 -2.14503 0.130906
upperback 5.00962 -2.09918 8.65832
thorax -7.74111 -1.00993 10.3469
lowerneck -3.49742 -6.96277 -15.5184
upperneck 30.9309 -9.97581 5.96789
head 11.8322 -5.7648 3.70381
rclavicle 3.97569e-016 -6.36111e-014
rhumerus -52.5367 -19.1445 -45.0296
rradius 52.9263
rwrist -6.9078
rhand -19.5882 22.2572
rfingers 7.12502
rthumb 6.73739 -7.61556
lclavicle 3.97569e-016 -6.36111e-014
lhumerus -40.1889 29.0657 46.176
lradius 47.3685
lwrist 10.4525
lhand -14.8901 38.4117
lfingers 7.12502
lthumb 11.2707 68.0889
rfemur -40.6034 -4.91497 -2.79759
rtibia 60.8551
rfoot -0.435095 -33.4968
rtoes 50.3016
lfemur -45.3071 7.7418 -31.2865
ltibia 82.209
lfoot -17.2384 1.01671
ltoes 24.3782
140
root 3.2475 13.6692 0.802029 -13.6413 -18.0782 -5.84621
lowerback 24.0842 -2.39493 0.242169
upperback 5.14354 -2.44181 8.54736
thorax -7.31758 -1.19936 10.2008
lowerneck -4.10635 -6.95692 -14.9957
upperneck 30.9253 -9.83016 5.60887
head 11.877 -5.66154 3.4797
rclavicle 5.4467e-014 -7.79236e-014
rhumerus -53.1844 -18.6965 -46.6757
rradius 52.856
rwrist -7.13259
rhand -20.3935 22.1756
rfingers 7.12502
rthumb 5.95992 -7.72058
lclavicle 5.4467e-014 -7.79236e-014
lhumerus -38.2147 28.4074 50.8886
lradius 47.362
lwrist 9.71726
lhand -16.4938 38.3337
lfingers 7.12502
lthumb 9.72374 68.0893
rfemur -43.4273 -6.37958 0.293618
rtibia 56.2639
rfoot -5.8151 -37.9354
rtoes 54.0668
lfemur -44.6795 8.1637 -32.1981
ltibia 82.3434
lfoot -18.3361 0.81773
ltoes 25.1271
141
root 3.28875 13.6921 1.02893 -13.4167 -17.967 -5.73502
lowerback 23.7966 -2.62974 0.367871
upperback 5.16445 -2.73475 8.5875
thorax -7.09964 -1.35402 10.2297
lowerneck -4.44342 -6.79609 -14.7051
upperneck 30.9843 -9.502 5.31147
head 11.8917 -5.50737 3.35307
rclavicle 8.54774e-015 2.8625e-014
rhumerus -53.829 -18.2641 -47.8258
rradius 52.4852
rwrist -7.23489
rhand -20.9321 22.5291
rfingers 7.12502
rthumb 5.43986 -7.38103
lclavicle 8.54774e-015 2.8625e-014
lhumerus -36.6701 27.9304 55.3732
lradius 47.3371
lwrist 8.80461
lhand -16.8103 38.8792
lfingers 7.12502
lthumb 9.41836 68.6487
rfemur -45.5631 -8.15796 3.98521
rtibia 52.8097
rfoot -31.2299 -37.8057
rtoes 66.3754
lfemur -43.9784 9.00028 -32.7812
ltibia 82.3711
lfoot -19.4163 0.307343
ltoes 27.3431
142
root 3.3371 13.7366 1.24008 -13.1182 -17.9059 -5.88593
lowerback 23.4969 -2.86613 0.626272
upperback 5.19651 -2.99133 8.76846
thorax -6.86801 -1.49444 10.3307
lowerneck -4.8871 -6.5978 -14.4021
upperneck 31.1135 -9.05881 4.84758
head 11.9375 -5.31811 3.17359
rclavicle -1.78906e-014 -8.74653e-014
rhumerus -54.357 -18.4977 -48.3288
rradius 51.6995
rwrist -6.44754
rhand -20.945 23.1645
rfingers 7.12502
rthumb 5.42742 -6.74599
lclavicle -1.78906e-014 -8.74653e-014
lhumerus -35.0252 27.5413 59.8841
lradius 47.2435
lwrist 8.09286
lhand -16.745 39.9612
lfingers 7.12502
lthumb 9.48144 69.7279
rfemur -47.87 -10.194 8.13092
rtibia 50.4096
rfoot -26.0318 -42.904
rtoes 60.4019
lfemur -43.232 10.1016 -33.0505
ltibia 82.1715
lfoot -20.3463 -0.30311
ltoes 29.3387
143
root 3.37222 13.7585 1.45069 -12.9016 -17.5084 -5.99697
lowerback 23.3033 -3.13622 0.862055
upperback 5.18466 -3.29073 8.90065
thorax -6.7348 -1.64961 10.4116
lowerneck -5.35381 -6.46322 -13.85
upperneck 31.3248 -8.68346 4.15951
head 12.0081 -5.15815 2.85815
rclavicle 9.54166e-015 8.26944e-014
rhumerus -54.8422 -18.6179 -49.3059
rradius 51.4224
rwrist -7.06348
rhand -21.6233 21.9331
rfingers 7.12502
rthumb 4.77249 -7.99318
lclavicle 9.54166e-015 8.26944e-014
lhumerus -33.1046 26.6637 64.4917
lradius 47.1961
lwrist 8.29431
lhand -16.4908 41.9321
lfingers 7.12502
lthumb 9.72667 71.6875
rfemur -50.1168 -12.7024 12.3474
rtibia 48.4887
rfoot -12.6026 -41.1894
rtoes 51.6668
lfemur -42.3943 11.0512 -33.4592
ltibia 81.9696
lfoot -21.2501 -0.6813
ltoes 29.3408
144
root 3.40759 13.7851 1.64987 -12.6903 -16.9744 -6.24871
lowerback 23.1356 -3.47031 1.0874
upperback 5.15342 -3.67217 9.07485
thorax -6.61888 -1.84426 10.5739
lowerneck -5.65235 -6.27664 -13.4466
upperneck 31.4213 -8.32193 3.7683
head 12.0256 -4.99123 2.68387
rclavicle -1.47101e-014 -4.77083e-015
rhumerus -55.3489 -19.0107 -49.7095
rradius 50.5952
rwrist -6.10141
rhand -20.7482 22.0702
rfingers 7.12502
rthumb 5.61747 -7.83534
lclavicle -1.47101e-014 -4.77083e-015
lhumerus -31.0799 25.2928 69.0775
lradius 47.2073
lwrist 9.63869
lhand -16.9623 45.0695
lfingers 7.12502
lthumb 9.27176 74.8456
rfemur -52.1961 -14.9995 16.5196
rtibia 46.7738
rfoot -0.368289 -28.914
rtoes 44.9719
lfemur -41.5273 11.8659 -33.6992
ltibia 81.7114
lfoot -22.0058 -1.3405
ltoes 31.132
145
root 3.44286 13.8178 1.84502 -12.513 -16.4375 -6.48074
lowerback 22.8489 -3.81939 1.17324
upperback 5.14835 -4.12132 9.22712
thorax -6.39229 -2.07631 10.7934
lowerneck -6.18696 -6.05204 -12.9862
upperneck 31.7595 -7.90702 3.41197
head 12.1857 -4.79387 2.51355
rclavicle -1.59028e-014 8.90555e-014
rhumerus -55.7004 -19.0491 -50.5396
rradius 50.0973
rwrist -6.45855
rhand -21.0205 21.2326
rfingers 7.12502
rthumb 5.35457 -8.67971
lclavicle -1.59028e-014 8.90555e-014
lhumerus -29.1134 23.6839 73.3935
lradius 47.0917
lwrist 11.2542
lhand -18.4757 46.6536
lfingers 7.12502
lthumb 7.81124 76.4893
rfemur -54.297 -17.0213 20.6821
rtibia 45.4922
rfoot 6.70455 -16.462
rtoes 44.0165
lfemur -40.6272 12.5883 -33.8986
ltibia 81.2155
lfoot -22.5226 -2.08901
ltoes 33.7325
